<svg t="1597389171190" class="icon" viewBox="0 0 1024 1024" version="1.1" xmlns="http://www.w3.org/2000/svg" p-id="7224" width="14" height="14"><path d="M786.534 476.176l-0.462 20.808c-1.628 23.3-7.594 63.824-28.204 109.472 6.502-30.416 9.956-61.964 9.956-94.328 0-24.192-1.916-47.936-5.598-71.088-30.182-189.802-179.252-339.846-368.276-371.036C371.412 64.57 358.096 64 358.096 64c0.476 0.562 0.93 1.124 1.4 1.688 78.916 94.362 88.2 193.312 75.488 263.7-4.562 25.258-11.956 46.842-19.982 63.21 0 0 6.718-27.822 6.07-59.44-0.586-28.468-7.144-60.012-29.972-77.104 6.994 36.756-1.504 67.002-18.242 95.458C323.38 435.616 202 498.772 192 654.816l0 7.672c0 107.384 51.248 197.958 137.438 250.024-13.7-24.688-29.928-70.414-17.466-120.302 7.996 47.338 19.902 72.09 41.758 103.512 16.306 23.442 38.208 38.538 66.19 49.868S477.99 960 511.778 960c111.618 0 210.456-57.134 267.69-143.904l0.534 0.122 0-0.014c32-50.508 52.2-111 52.2-176.038C832.2 580.224 815.192 524.142 786.534 476.176z" p-id="7225" fill="#da14e8"></path></svg>